# xmcd CD database file
#
# Track frame offsets:
#	150
#	64065
#	84008
#	117951
#	135678
#	152966
#	185797
#	211865
#	228832
#	261972
#	283232
#
# Disc length: 4010 seconds
#
# Revision: 0
# Processed by: cddbd v1.5.2PL0 Copyright (c) Steve Scherf et al.
# Submitted via: CDex 1.70beta2
#
DISCID=9c0fa80b
DTITLE=Sonny Stitt - Goin' Down Slow
DYEAR=1900
DGENRE=Jazz
TTITLE0=Sonny Stitt - Miss Ann, Lisa, She And Sadie
TTITLE1=Sonny Stitt - Where Is Love?
TTITLE2=Sonny Stitt - Living Without You
TTITLE3=Sonny Stitt - Goin' Down Slow
TTITLE4=Sonny Stitt - Moving Beauty
TTITLE5=Chris Potter - You And The Night And The Musi
TTITLE6=Sonny Stitt - Your Love Is So Doggone Good
TTITLE7=Sonny Stitt - Orange Ashtray
TTITLE8=Sonny Stitt - I Don't Know Yet
TTITLE9=Sonny Stitt - The More I See You
TTITLE10=Sonny Stitt - Speculation
EXTD=
EXTT0=
EXTT1=
EXTT2=
EXTT3=
EXTT4=
EXTT5=
EXTT6=
EXTT7=
EXTT8=
EXTT9=
EXTT10=
PLAYORDER=
